<mxfile host="app.diagrams.net" modified="2022-05-23T15:24:07.417Z" agent="5.0 (Windows NT 10.0; Win64; x64) AppleWebKit/537.36 (KHTML, like Gecko) Chrome/101.0.4951.67 Safari/537.36" etag="7kosseQh1tTrnUTIWKde" version="18.1.1" type="github">
  <diagram id="14JXQF6iqYJc_i1V44Bh" name="第 1 页">
    <mxGraphModel dx="688" dy="519" grid="1" gridSize="10" guides="1" tooltips="1" connect="1" arrows="1" fold="1" page="1" pageScale="1" pageWidth="827" pageHeight="1169" math="0" shadow="0">
      <root>
        <mxCell id="0" />
        <mxCell id="1" parent="0" />
        <mxCell id="Dg7YLbpLQUtgEisMfMO5-1" style="edgeStyle=orthogonalEdgeStyle;rounded=0;orthogonalLoop=1;jettySize=auto;html=1;exitX=0.5;exitY=1;exitDx=0;exitDy=0;entryX=0.5;entryY=0;entryDx=0;entryDy=0;" edge="1" parent="1" source="Dg7YLbpLQUtgEisMfMO5-2" target="Dg7YLbpLQUtgEisMfMO5-4">
          <mxGeometry relative="1" as="geometry" />
        </mxCell>
        <mxCell id="Dg7YLbpLQUtgEisMfMO5-2" value="第三章" style="rounded=1;whiteSpace=wrap;html=1;" vertex="1" parent="1">
          <mxGeometry x="280" y="80" width="120" height="20" as="geometry" />
        </mxCell>
        <mxCell id="Dg7YLbpLQUtgEisMfMO5-3" style="edgeStyle=orthogonalEdgeStyle;rounded=0;orthogonalLoop=1;jettySize=auto;html=1;exitX=0.5;exitY=1;exitDx=0;exitDy=0;entryX=0.5;entryY=0;entryDx=0;entryDy=0;" edge="1" parent="1" source="Dg7YLbpLQUtgEisMfMO5-4">
          <mxGeometry relative="1" as="geometry">
            <mxPoint x="340" y="160" as="targetPoint" />
          </mxGeometry>
        </mxCell>
        <mxCell id="Dg7YLbpLQUtgEisMfMO5-4" value="晚饭时间" style="rounded=0;whiteSpace=wrap;html=1;" vertex="1" parent="1">
          <mxGeometry x="280" y="120" width="120" height="20" as="geometry" />
        </mxCell>
        <mxCell id="Dg7YLbpLQUtgEisMfMO5-9" style="edgeStyle=orthogonalEdgeStyle;rounded=0;orthogonalLoop=1;jettySize=auto;html=1;exitX=0.5;exitY=1;exitDx=0;exitDy=0;entryX=0.5;entryY=0;entryDx=0;entryDy=0;" edge="1" parent="1" source="Dg7YLbpLQUtgEisMfMO5-5" target="Dg7YLbpLQUtgEisMfMO5-8">
          <mxGeometry relative="1" as="geometry" />
        </mxCell>
        <mxCell id="Dg7YLbpLQUtgEisMfMO5-5" value="科普食物抑郁知识" style="rounded=0;whiteSpace=wrap;html=1;" vertex="1" parent="1">
          <mxGeometry x="280" y="200" width="120" height="20" as="geometry" />
        </mxCell>
        <mxCell id="Dg7YLbpLQUtgEisMfMO5-6" style="edgeStyle=orthogonalEdgeStyle;rounded=0;orthogonalLoop=1;jettySize=auto;html=1;exitX=0.5;exitY=1;exitDx=0;exitDy=0;" edge="1" parent="1" source="Dg7YLbpLQUtgEisMfMO5-7" target="Dg7YLbpLQUtgEisMfMO5-5">
          <mxGeometry relative="1" as="geometry" />
        </mxCell>
        <mxCell id="Dg7YLbpLQUtgEisMfMO5-7" value="选择食物" style="rounded=0;whiteSpace=wrap;html=1;" vertex="1" parent="1">
          <mxGeometry x="280" y="160" width="120" height="20" as="geometry" />
        </mxCell>
        <mxCell id="Dg7YLbpLQUtgEisMfMO5-11" value="高" style="edgeStyle=orthogonalEdgeStyle;rounded=0;orthogonalLoop=1;jettySize=auto;html=1;exitX=0.5;exitY=1;exitDx=0;exitDy=0;entryX=0.5;entryY=0;entryDx=0;entryDy=0;" edge="1" parent="1" source="Dg7YLbpLQUtgEisMfMO5-8" target="Dg7YLbpLQUtgEisMfMO5-10">
          <mxGeometry relative="1" as="geometry" />
        </mxCell>
        <mxCell id="Dg7YLbpLQUtgEisMfMO5-15" style="edgeStyle=orthogonalEdgeStyle;rounded=0;orthogonalLoop=1;jettySize=auto;html=1;exitX=1;exitY=0.5;exitDx=0;exitDy=0;entryX=0;entryY=0.5;entryDx=0;entryDy=0;" edge="1" parent="1" source="Dg7YLbpLQUtgEisMfMO5-8" target="Dg7YLbpLQUtgEisMfMO5-14">
          <mxGeometry relative="1" as="geometry">
            <Array as="points">
              <mxPoint x="410" y="260" />
              <mxPoint x="410" y="90" />
            </Array>
          </mxGeometry>
        </mxCell>
        <mxCell id="Dg7YLbpLQUtgEisMfMO5-35" value="低" style="edgeLabel;html=1;align=center;verticalAlign=middle;resizable=0;points=[];" vertex="1" connectable="0" parent="Dg7YLbpLQUtgEisMfMO5-15">
          <mxGeometry x="-0.6838" y="1" relative="1" as="geometry">
            <mxPoint as="offset" />
          </mxGeometry>
        </mxCell>
        <mxCell id="Dg7YLbpLQUtgEisMfMO5-8" value="抑郁值判断" style="rhombus;whiteSpace=wrap;html=1;" vertex="1" parent="1">
          <mxGeometry x="280" y="240" width="120" height="40" as="geometry" />
        </mxCell>
        <mxCell id="Dg7YLbpLQUtgEisMfMO5-13" style="edgeStyle=orthogonalEdgeStyle;rounded=0;orthogonalLoop=1;jettySize=auto;html=1;exitX=0.5;exitY=1;exitDx=0;exitDy=0;entryX=0.5;entryY=0;entryDx=0;entryDy=0;" edge="1" parent="1" source="Dg7YLbpLQUtgEisMfMO5-10" target="Dg7YLbpLQUtgEisMfMO5-12">
          <mxGeometry relative="1" as="geometry" />
        </mxCell>
        <mxCell id="Dg7YLbpLQUtgEisMfMO5-10" value="吃不下饭" style="rounded=0;whiteSpace=wrap;html=1;" vertex="1" parent="1">
          <mxGeometry x="280" y="320" width="120" height="20" as="geometry" />
        </mxCell>
        <mxCell id="Dg7YLbpLQUtgEisMfMO5-27" style="edgeStyle=orthogonalEdgeStyle;rounded=0;orthogonalLoop=1;jettySize=auto;html=1;exitX=1;exitY=0.5;exitDx=0;exitDy=0;entryX=0;entryY=0.5;entryDx=0;entryDy=0;" edge="1" parent="1" source="Dg7YLbpLQUtgEisMfMO5-12" target="Dg7YLbpLQUtgEisMfMO5-18">
          <mxGeometry relative="1" as="geometry">
            <Array as="points">
              <mxPoint x="430" y="370" />
              <mxPoint x="430" y="170" />
            </Array>
          </mxGeometry>
        </mxCell>
        <mxCell id="Dg7YLbpLQUtgEisMfMO5-12" value="感觉抑郁" style="rounded=0;whiteSpace=wrap;html=1;" vertex="1" parent="1">
          <mxGeometry x="280" y="360" width="120" height="20" as="geometry" />
        </mxCell>
        <mxCell id="Dg7YLbpLQUtgEisMfMO5-17" style="edgeStyle=orthogonalEdgeStyle;rounded=0;orthogonalLoop=1;jettySize=auto;html=1;exitX=0.5;exitY=1;exitDx=0;exitDy=0;entryX=0.5;entryY=0;entryDx=0;entryDy=0;" edge="1" parent="1" source="Dg7YLbpLQUtgEisMfMO5-14" target="Dg7YLbpLQUtgEisMfMO5-16">
          <mxGeometry relative="1" as="geometry" />
        </mxCell>
        <mxCell id="Dg7YLbpLQUtgEisMfMO5-14" value="饭后回卧室" style="rounded=0;whiteSpace=wrap;html=1;" vertex="1" parent="1">
          <mxGeometry x="440" y="80" width="120" height="20" as="geometry" />
        </mxCell>
        <mxCell id="Dg7YLbpLQUtgEisMfMO5-19" style="edgeStyle=orthogonalEdgeStyle;rounded=0;orthogonalLoop=1;jettySize=auto;html=1;exitX=0.5;exitY=1;exitDx=0;exitDy=0;entryX=0.5;entryY=0;entryDx=0;entryDy=0;" edge="1" parent="1" source="Dg7YLbpLQUtgEisMfMO5-16" target="Dg7YLbpLQUtgEisMfMO5-18">
          <mxGeometry relative="1" as="geometry" />
        </mxCell>
        <mxCell id="Dg7YLbpLQUtgEisMfMO5-16" value="感觉焦虑" style="rounded=0;whiteSpace=wrap;html=1;" vertex="1" parent="1">
          <mxGeometry x="440" y="120" width="120" height="20" as="geometry" />
        </mxCell>
        <mxCell id="Dg7YLbpLQUtgEisMfMO5-29" style="edgeStyle=orthogonalEdgeStyle;rounded=0;orthogonalLoop=1;jettySize=auto;html=1;exitX=0.5;exitY=1;exitDx=0;exitDy=0;entryX=0.5;entryY=0;entryDx=0;entryDy=0;" edge="1" parent="1" source="Dg7YLbpLQUtgEisMfMO5-18" target="Dg7YLbpLQUtgEisMfMO5-21">
          <mxGeometry relative="1" as="geometry" />
        </mxCell>
        <mxCell id="Dg7YLbpLQUtgEisMfMO5-18" value="查询抑郁症" style="rounded=0;whiteSpace=wrap;html=1;" vertex="1" parent="1">
          <mxGeometry x="440" y="160" width="120" height="20" as="geometry" />
        </mxCell>
        <mxCell id="Dg7YLbpLQUtgEisMfMO5-31" value="高" style="edgeStyle=orthogonalEdgeStyle;rounded=0;orthogonalLoop=1;jettySize=auto;html=1;exitX=0.5;exitY=1;exitDx=0;exitDy=0;entryX=0.5;entryY=0;entryDx=0;entryDy=0;" edge="1" parent="1" source="Dg7YLbpLQUtgEisMfMO5-21" target="Dg7YLbpLQUtgEisMfMO5-30">
          <mxGeometry relative="1" as="geometry" />
        </mxCell>
        <mxCell id="Dg7YLbpLQUtgEisMfMO5-33" style="edgeStyle=orthogonalEdgeStyle;rounded=0;orthogonalLoop=1;jettySize=auto;html=1;exitX=1;exitY=0.5;exitDx=0;exitDy=0;entryX=1;entryY=0.5;entryDx=0;entryDy=0;" edge="1" parent="1" source="Dg7YLbpLQUtgEisMfMO5-21" target="Dg7YLbpLQUtgEisMfMO5-32">
          <mxGeometry relative="1" as="geometry" />
        </mxCell>
        <mxCell id="Dg7YLbpLQUtgEisMfMO5-34" value="低" style="edgeLabel;html=1;align=center;verticalAlign=middle;resizable=0;points=[];" vertex="1" connectable="0" parent="Dg7YLbpLQUtgEisMfMO5-33">
          <mxGeometry x="-0.216" y="1" relative="1" as="geometry">
            <mxPoint as="offset" />
          </mxGeometry>
        </mxCell>
        <mxCell id="Dg7YLbpLQUtgEisMfMO5-21" value="抑郁量表分析" style="rhombus;whiteSpace=wrap;html=1;" vertex="1" parent="1">
          <mxGeometry x="440" y="200" width="120" height="40" as="geometry" />
        </mxCell>
        <mxCell id="Dg7YLbpLQUtgEisMfMO5-30" value="怀疑抑郁" style="rounded=0;whiteSpace=wrap;html=1;" vertex="1" parent="1">
          <mxGeometry x="440" y="280" width="120" height="20" as="geometry" />
        </mxCell>
        <mxCell id="Dg7YLbpLQUtgEisMfMO5-32" value="认为考前焦虑" style="rounded=0;whiteSpace=wrap;html=1;" vertex="1" parent="1">
          <mxGeometry x="440" y="320" width="120" height="20" as="geometry" />
        </mxCell>
      </root>
    </mxGraphModel>
  </diagram>
</mxfile>
